<?xml version="1.0" encoding="utf-8"?>
<!-- Generator: Adobe Illustrator 14.0.0, SVG Export Plug-In . SVG Version: 6.00 Build 43363)  -->
<!DOCTYPE svg PUBLIC "-//W3C//DTD SVG 1.1//EN" "http://www.w3.org/Graphics/SVG/1.1/DTD/svg11.dtd">
<svg xmlns="http://www.w3.org/2000/svg" xmlns:xlink="http://www.w3.org/1999/xlink" version="1.1" id="Layer_1" x="0px" y="0px" width="516px" height="320px" viewBox="0 0 516 320" xml:space="preserve">
<g>
	<path d="M352.9,30.2c-4.7,5.1-10.6,9.4-13.2,9.4c-2.5,0-9.4,5.1-15,11.2c-13.8,15-50.5,20.2-70.1,10.1c-8-4.1-16.7-7.3-20.1-7.3   c-3.4,0-12.7,7-21.1,15.9c-18.1,19.2-45.3,29.3-58.9,21.9c-14-7.6-45.5-6.2-53.9,2.4C96.4,98,90.2,107,86.6,114   c-9.8,19.2-17.6,63.5-14.3,81.4c2.7,14.3,1.3,16.9-13.2,25.5c-12,7.1-16.9,13.8-19.2,26c-3.9,21.1,0.4,39.2,10.6,43.6   c4.1,1.8,30.2,4.3,57.8,5.6c41.7,1.9,52.3,1,62-5.4c6.6-4.3,11.7-9.8,11.7-12.4c0-2.6-8.9-4.7-20.1-4.7c-26.2,0-74.5-8.8-80.5-14.7   c-7.6-7.5,6.6-12.9,33.7-12.9c18.7,0,24.8,1.7,24.8,7c0,13.2,23.4,17.1,84.7,14.1c32.8-1.6,62.6-4.1,66.5-5.5   c9.8-3.7,13.7-16,7.4-23.6c-2.8-3.3-17-6.7-31.5-7.5l-26.4-1.4l35.1-12.4c33.7-11.9,36.3-12.2,64.6-6.3c16.4,3.4,38.1,6.8,48.9,7.7   c17.3,1.5,19.8,0.4,22.7-10.1c1.8-6.5,3.5-24.6,3.7-40.5c0.4-27.1,1.2-29,13.3-31.8c7.2-1.7,21.8-6.6,33-11   c13.6-5.4,20.8-11.4,22.2-18.5c1.1-5.6,3.1-15.4,4.2-21.1c1.1-5.6,0.6-12.8-1.2-15.4c-1.8-2.7-15-7.5-29-10.5   c-16.4-3.6-27.9-9-31.6-15c-3.2-5.1-9.9-9.4-14.7-9.4c-4.7,0-10.1-3.3-11.5-7C396.1,16.9,363.6,18.5,352.9,30.2L352.9,30.2z    M367.6,38c-1.6,1.6-3,0.2-3-3c0-3.3,1.4-4.7,3-3C369.4,33.7,369.4,36.1,367.6,38L367.6,38z M391.2,33c-1.5,1.5-5.6,1.7-8.9,0.5   c-3.8-1.5-2.8-2.5,2.8-2.8C389.8,30.5,392.7,31.6,391.2,33L391.2,33z M421.2,47.6c3.1,3.1,2.3,15.4-2.3,37   c-3.9,17.7-8.1,49.6-9.4,70.7c-1.3,21.1-4.6,42.6-7.3,47.7c-4.1,7.8-7.3,8.7-19,5.1c-8.4-2.5-13-2.5-11.5,0c3.6,6-4.4,5.6-10.5-0.5   c-2.8-2.8-11.5-5.7-19-6.3s-16.8-3-20.4-5.3c-8.4-5.3-30.9-8.6-26.2-3.8c5.1,5.1-16.8,14.1-29,11.8c-8-1.5-9.1-3-4.4-6   c4.7-2.9,4.9-4,0.7-4c-3,0-4.4-3.3-2.9-7c3.4-8.8-10.5-48.7-21.5-61.8C226,110.3,197,108,172.6,120c-10.8,5.3-21.2,13.4-23.9,18.3   c-6.5,12.4-0.5,11.2,12.2-2.3c14-15,49.6-20.9,65.1-10.7c10.4,6.9,26.2,42.1,26.2,58.5c0,13.1-19.2,46.5-29.5,51.3   c-7.9,3.7-2.3,4.5,23.9,3.2c18.7-0.9,37.3-0.4,41.2,1.1c9.5,3.7,8.4,15.1-1.4,15.4c-43.1,1.5-57.6,3.3-57.6,7.1   c0,2.5-1.9,2.3-4.7-0.5c-2.7-2.7-14-3.5-27.1-1.8c-27.6,3.5-45.1-0.3-46.9-10.3c-0.7-4.2,2.4-11.2,7.1-15.9c8.1-8.1,8-8.3-3.3-4.7   c-6.4,2-24.1,4.3-39.1,4.9c-19.7,0.8-29.9,3.7-36.3,10.3c-7.3,7.5-7.8,10.6-3,17.3c3.9,5.4,18.5,10.2,43.3,14.3   c28.1,4.6,34.5,6.8,25.7,9.1c-23.9,6.2-40.2,6.2-58,0c-21.5-7.5-27.7-7.9-23.8-1.7c4.4,7.1-2,5.6-9.9-2.3c-3.6-3.6-6.6-14-6.6-23.4   c0-19.7,12.6-34.3,33.2-38.4c13.6-2.7,13.8-3.2,6.6-14c-10.9-16.5-10-44.9,2.6-76.8c8.3-21.1,14-28.7,23.8-32.1   c8.1-2.8,19.2-2.6,30,0.5l17.1,4.9l-19.2,9.4c-10.8,5.3-25.7,17.6-33.9,28.1l-14.7,18.7l36.3-26c20.1-14.4,47.7-30.2,62-35.6   c14.1-5.3,53.6-15,87.3-21.5c33.7-6.5,68.5-14.1,77-16.8c19.2-6,27.7-1.4,17.6,9.5c-6.5,7.1-6.5,9.1,0.2,18.5   c4.9,6.9,6.5,15.7,4.7,25.5c-1.6,8.4-3.1,17.6-3.5,21.1c-1.3,10.8-21.3,6.1-29.7-7c-12.6-19.7-31.5-33.8-45.4-33.9   c-17.3-0.2-27.1,4.2-27.1,11.9c0,5.3,2.1,5.2,11.5-0.7c9.4-5.9,13.4-6.2,22.2-1.6c5.9,3.1,22.4,18,36.5,33s27.9,27.4,30.4,27.4   c11.1,0,19.2-87,10-108.1c-2.5-5.7-1.1-8.5,5-10C399.2,40.1,415.8,42.2,421.2,47.6L421.2,47.6z M252.2,67.2c0,4.2-29,10.1-32.8,6.7   c-3.7-3.5,11.2-10.6,22.5-10.8C247.5,63,252.2,64.9,252.2,67.2L252.2,67.2z M479,79.8c2.1,8.4,0.4,15.3-5.5,22.5   c-11.2,13.6-16.2,16.8-25.6,16.8c-6.7,0-7.9-2.3-5.6-11.7c1.6-6.6,3.1-16.6,3.5-22.9c0.4-6.1,2.3-10.3,4.2-9.1c2,1.2,3.5,0,3.5-2.8   c0-2.7,5.1-4.9,11.2-4.9C472.9,67.7,476.7,71,479,79.8L479,79.8z M428.4,122.2c-1.8,1.8-4.3,1.8-6.1,0c-1.6-1.6-0.2-3,3-3   S430,120.6,428.4,122.2L428.4,122.2z M171.2,281.1c-1.5,1.5-5.6,1.7-8.9,0.5c-3.8-1.5-2.8-2.5,2.8-2.8   C169.8,278.5,172.7,279.6,171.2,281.1L171.2,281.1z"/>
	<path d="M166.8,220.7c3.3,1.3,8.4,1.3,11.7,0c3.3-1.3,0.7-2.3-5.9-2.3C166.1,218.4,163.5,219.4,166.8,220.7L166.8,220.7z"/>
</g>
</svg>
